<svg width="79" height="38" viewBox="0 0 79 38" fill="none" xmlns="http://www.w3.org/2000/svg">
<path d="M1.68 0.423999H7.992C9.48 0.423999 10.624 0.535999 11.424 0.759999C12.24 0.967999 12.816 1.312 13.152 1.792C13.488 2.256 13.656 2.912 13.656 3.76V5.68C13.656 6.112 13.48 6.52 13.128 6.904C12.792 7.288 12.392 7.552 11.928 7.696V7.816C12.536 7.88 13.088 8.144 13.584 8.608C14.096 9.056 14.352 9.56 14.352 10.12V12.52C14.352 13.784 13.848 14.68 12.84 15.208C11.832 15.736 10.272 16 8.16 16H1.68V0.423999ZM7.992 6.76C8.584 6.76 9.024 6.712 9.312 6.616C9.6 6.52 9.792 6.368 9.888 6.16C10 5.936 10.056 5.616 10.056 5.2V4.432C10.056 4.064 10.008 3.792 9.912 3.616C9.816 3.424 9.616 3.288 9.312 3.208C9.024 3.128 8.56 3.088 7.92 3.088H5.424V6.76H7.992ZM8.088 13.336C9 13.336 9.648 13.232 10.032 13.024C10.416 12.816 10.608 12.48 10.608 12.016V10.768C10.608 10.192 10.456 9.784 10.152 9.544C9.864 9.304 9.344 9.184 8.592 9.184H5.424V13.336H8.088ZM22.6024 16.24C18.4904 16.24 16.4344 14.984 16.4344 12.472V8.296C16.4344 6.84 16.8984 5.784 17.8264 5.128C18.7704 4.472 20.2184 4.144 22.1704 4.144C24.0104 4.144 25.3544 4.464 26.2024 5.104C27.0664 5.728 27.4984 6.792 27.4984 8.296V11.128H19.9624V12.184C19.9624 12.856 20.2024 13.336 20.6824 13.624C21.1624 13.912 22.0264 14.056 23.2744 14.056C24.4264 14.056 25.7224 13.888 27.1624 13.552V15.784C25.7384 16.088 24.2184 16.24 22.6024 16.24ZM24.1624 9.136V7.456C24.1624 7.072 24.0024 6.784 23.6824 6.592C23.3784 6.4 22.8584 6.304 22.1224 6.304C21.2744 6.304 20.7064 6.4 20.4184 6.592C20.1144 6.8 19.9624 7.088 19.9624 7.456V9.136H24.1624ZM33.4646 16.24C32.3766 16.24 31.5606 16.144 31.0166 15.952C30.4886 15.744 30.1126 15.384 29.8886 14.872C29.6806 14.344 29.5766 13.56 29.5766 12.52C29.5766 11.592 29.6886 10.864 29.9126 10.336C30.1526 9.808 30.5286 9.432 31.0406 9.208C31.5686 8.968 32.2886 8.848 33.2006 8.848H37.1366V8.056C37.1366 7.56 37.0646 7.192 36.9206 6.952C36.7926 6.712 36.5446 6.544 36.1766 6.448C35.8246 6.352 35.2886 6.304 34.5686 6.304C33.5766 6.304 32.2166 6.4 30.4886 6.592V4.384C31.7526 4.224 33.2326 4.144 34.9286 4.144C36.4166 4.144 37.5606 4.256 38.3606 4.48C39.1766 4.704 39.7606 5.088 40.1126 5.632C40.4646 6.176 40.6406 6.968 40.6406 8.008V16H37.2086V14.944C36.9366 15.408 36.5686 15.736 36.1046 15.928C35.6406 16.136 34.7606 16.24 33.4646 16.24ZM34.8326 14.056C35.5366 14.056 36.0406 14.032 36.3446 13.984C36.5686 13.952 36.7206 13.904 36.8006 13.84C36.8966 13.776 36.9766 13.672 37.0406 13.528C37.1046 13.416 37.1366 13.248 37.1366 13.024V10.768H34.7366C34.1926 10.768 33.8086 10.808 33.5846 10.888C33.3606 10.952 33.2086 11.096 33.1286 11.32C33.0486 11.528 33.0086 11.904 33.0086 12.448C33.0086 12.976 33.0486 13.344 33.1286 13.552C33.2086 13.76 33.3606 13.896 33.5846 13.96C33.8246 14.024 34.2406 14.056 34.8326 14.056ZM47.7555 16.24C46.2675 16.24 45.2195 15.976 44.6115 15.448C44.0195 14.904 43.7235 14.056 43.7235 12.904V4.384H47.2275V12.424C47.2275 12.872 47.2675 13.208 47.3475 13.432C47.4435 13.656 47.6195 13.816 47.8755 13.912C48.1475 14.008 48.5555 14.056 49.0995 14.056C49.7875 14.056 50.2915 14.016 50.6115 13.936C50.9315 13.84 51.1475 13.68 51.2595 13.456C51.3715 13.232 51.4275 12.888 51.4275 12.424V4.384H54.9315V16H51.4755V14.584C51.2195 15.688 49.9795 16.24 47.7555 16.24ZM63.8049 16.24C63.2129 16.24 62.7169 16.216 62.3169 16.168C61.9169 16.12 61.5169 16.024 61.1169 15.88C60.6689 15.736 60.3009 15.536 60.0129 15.28C59.7409 15.024 59.5169 14.672 59.3409 14.224C59.1489 13.76 59.0529 13.224 59.0529 12.616V6.544H56.7009V4.384H59.0529V1.024H62.5569V4.384H65.7489V6.544H62.5569V12.016C62.5569 12.576 62.6049 13 62.7009 13.288C62.7969 13.56 62.9809 13.76 63.2529 13.888C63.5249 14 63.9409 14.056 64.5009 14.056C64.7249 14.056 65.1409 14.016 65.7489 13.936V16.12C64.9969 16.2 64.3489 16.24 63.8049 16.24ZM71.0584 15.904L66.4264 4.384H70.2424L72.8584 12.592L75.2344 4.384H78.8584L72.4984 20.992H68.9464L71.0584 15.904ZM0.96 34.72L9.072 24.088H1.2V21.424H13.68V23.68L5.568 34.312H13.824V37H0.96V34.72ZM21.7993 37.24C21.0793 37.24 20.4873 37.216 20.0233 37.168C19.5593 37.12 19.0633 37.024 18.5353 36.88C17.9593 36.72 17.4953 36.496 17.1433 36.208C16.7913 35.904 16.4953 35.48 16.2553 34.936C16.0153 34.408 15.8953 33.768 15.8953 33.016V29.584C15.8953 28.816 16.0153 28.144 16.2553 27.568C16.4953 26.992 16.8073 26.544 17.1913 26.224C17.5273 25.952 17.9673 25.728 18.5113 25.552C19.0713 25.36 19.6153 25.24 20.1433 25.192C20.7513 25.16 21.3033 25.144 21.7993 25.144C22.5353 25.144 23.1193 25.168 23.5513 25.216C23.9993 25.248 24.4873 25.344 25.0153 25.504C25.5913 25.68 26.0553 25.92 26.4073 26.224C26.7753 26.528 27.0873 26.96 27.3433 27.52C27.5833 28.096 27.7033 28.784 27.7033 29.584V33.016C27.7033 33.736 27.5833 34.368 27.3433 34.912C27.1193 35.456 26.8233 35.88 26.4553 36.184C26.1353 36.456 25.6953 36.68 25.1353 36.856C24.5913 37.016 24.0553 37.12 23.5273 37.168C23.0473 37.216 22.4713 37.24 21.7993 37.24ZM21.7993 35.056C22.4553 35.056 22.9513 35.008 23.2873 34.912C23.6233 34.8 23.8553 34.632 23.9833 34.408C24.1273 34.184 24.1993 33.856 24.1993 33.424V29.032C24.1993 28.392 24.0313 27.944 23.6953 27.688C23.3593 27.432 22.7273 27.304 21.7993 27.304C20.8713 27.304 20.2393 27.432 19.9033 27.688C19.5673 27.944 19.3993 28.392 19.3993 29.032V33.424C19.3993 33.856 19.4633 34.184 19.5913 34.408C19.7353 34.632 19.9753 34.8 20.3113 34.912C20.6473 35.008 21.1433 35.056 21.7993 35.056ZM30.4344 25.384H33.8904V26.8C34.1624 25.696 35.4024 25.144 37.6104 25.144C39.0984 25.144 40.1384 25.416 40.7304 25.96C41.3384 26.488 41.6424 27.328 41.6424 28.48V37H38.1384V28.936C38.1384 28.488 38.0904 28.152 37.9944 27.928C37.9144 27.704 37.7384 27.544 37.4664 27.448C37.2104 27.352 36.8104 27.304 36.2664 27.304C35.5784 27.304 35.0744 27.352 34.7544 27.448C34.4344 27.528 34.2184 27.68 34.1064 27.904C33.9944 28.128 33.9384 28.472 33.9384 28.936V37H30.4344V25.384ZM50.5399 37.24C46.4279 37.24 44.3719 35.984 44.3719 33.472V29.296C44.3719 27.84 44.8359 26.784 45.7639 26.128C46.7079 25.472 48.1559 25.144 50.1079 25.144C51.9479 25.144 53.2919 25.464 54.1399 26.104C55.0039 26.728 55.4359 27.792 55.4359 29.296V32.128H47.8999V33.184C47.8999 33.856 48.1399 34.336 48.6199 34.624C49.0999 34.912 49.9639 35.056 51.2119 35.056C52.3639 35.056 53.6599 34.888 55.0999 34.552V36.784C53.6759 37.088 52.1559 37.24 50.5399 37.24ZM52.0999 30.136V28.456C52.0999 28.072 51.9399 27.784 51.6199 27.592C51.3159 27.4 50.7959 27.304 50.0599 27.304C49.2119 27.304 48.6439 27.4 48.3559 27.592C48.0519 27.8 47.8999 28.088 47.8999 28.456V30.136H52.0999Z" fill="#2B7FFF"/>
</svg>
